<svg id="Warstwa_1" data-name="Warstwa 1" xmlns="http://www.w3.org/2000/svg" viewBox="0 0 2268.6 714.68"><defs><style>.cls-1{fill:#8c0;}.cls-2{fill:#fff;}</style></defs><path class="cls-1" d="M271.14,479.14q-18.24,0-26.27-6.39t-8-19.73a74.09,74.09,0,0,1,2.18-16.17l33.67-158.44q4.69-21.56,15.82-32t34.36-10.5l149.49-.38-10.22,48.93-125.82.13c-4.77,0-7.24.62-9,2.3s-3.29,5.28-4.5,10.78L296.89,419.58a30.68,30.68,0,0,0-.73,4.67c0,2.4.28,3.91,1.71,4.74s3.57,1,7.14,1l77.6.12,11.47-53.28-48.52.12,8.92-39.16,98.71-.25L423.14,478.75Z"/><path class="cls-1" d="M462.75,478.66l38.74-181.8,48.64-.12-4.35,19.76q6.83-10.42,15.24-15.12t20.22-4.72l52.57-.14-10.62,48.66-72.24.19q-5.37,0-8.05,2c-1.79,1.32-3.18,4-4.14,8.09L512.82,478.53Z"/><path class="cls-1" d="M658.79,479.23q-15.37,0-22-5.15t-6.58-16.32a76.94,76.94,0,0,1,1.83-14l23.53-110.66q4-18.31,13.12-27t28.81-8.69l122.32-.32q13.59,0,19.48,5.16t5.86,15.61a65.15,65.15,0,0,1-1.47,13.29L828,404.13l-109.11.3,7.18-34.07,59.43-.18,4.88-22a47.75,47.75,0,0,0,.8-6.78c0-1.92-.53-3.23-1.6-3.95s-3-1.07-5.9-1.06l-69.77.18q-6.09,0-8.23,2t-3.6,8.09L684.67,427.1c-.24,1.2-.42,2.22-.54,3a16.71,16.71,0,0,0-.19,2.34c0,2.15.59,3.59,1.78,4.3s3.34,1.07,6.44,1.06l122-.31-8.68,41.32Z"/><path class="cls-1" d="M878.3,479.86q-15.37,0-22-5.16t-6.57-16.32a76.75,76.75,0,0,1,1.82-14L875.1,333.72q4-18.33,13.13-27T917,298.06l122.31-.31q13.59,0,19.48,5.15t5.86,15.61a65,65,0,0,1-1.46,13.29l-15.69,72.95-108.94.31L945.79,371l59.38-.19,4.88-22a51.23,51.23,0,0,0,.8-6.79c0-1.91-.53-3.23-1.6-3.94s-3-1.07-5.9-1.07l-69.9.19c-4.05,0-6.79.68-8.23,2s-2.63,4-3.59,8.09l-17.44,80.44c-.25,1.2-.43,2.22-.55,3.06a16.48,16.48,0,0,0-.18,2.33c0,2.16.58,3.59,1.78,4.31s3.33,1.06,6.43,1.06l122-.32-8.69,41.32Z"/><path class="cls-2" d="M1656.86,480.21q-15.37,0-22-5.15t-6.57-16.32a76.75,76.75,0,0,1,1.82-14l23.53-110.66q4-18.31,13.12-27t28.82-8.7l122.31-.31q13.59,0,19.48,5.16t5.86,15.6a65,65,0,0,1-1.46,13.29l-15.69,73-108.6.31,7.18-34.07,58.89-.19,4.88-22a49.61,49.61,0,0,0,.8-6.79c0-1.91-.53-3.23-1.6-3.94s-3-1.07-5.9-1.06l-69.74.18q-6.08,0-8.23,2t-3.6,8.09l-17.43,80.43c-.25,1.21-.43,2.22-.55,3.06a16.59,16.59,0,0,0-.18,2.33c0,2.16.58,3.59,1.78,4.31s3.33,1.07,6.43,1.06l122-.31-8.69,41.31Z"/><path class="cls-1" d="M1197.33,479.09l26-123.25a36.63,36.63,0,0,0,.73-4.31q0-5.75-8.93-5.72l-62.54.19c-3.57,0-6.2.67-7.87,2s-3,4-4,8.09l-26,123.25-50.07.13,38.74-181.8,48.28-.12-4.34,19.76q12.92-19.77,35.45-19.84l69-.21q14.65,0,21.26,5t6.58,16.86a66.52,66.52,0,0,1-1.47,13.64L1247,479Z"/><path class="cls-2" d="M1434.72,479.42q-18.24,0-26.09-6.4t-7.82-20.09c0-2.39.13-4.85.38-7.36a65.36,65.36,0,0,1,1.45-8.44l33.67-158.44q4.7-21.57,16-32t34.18-10.51l149.55-.35-10.14,48.51-122.73.28q-8.58,0-11.63,2.72t-4.85,11L1461,416.87c-.24,1.2-.42,2.22-.54,3.05a17.65,17.65,0,0,0-.19,2.69q0,4,2.49,5.74t9.29,1.78l123.45-.29L1585,479.06Z"/><polygon class="cls-2" points="1843.25 479.46 1894.91 236.65 1944.98 236.52 1893.32 479.33 1843.25 479.46"/><polygon class="cls-2" points="1932.91 479.46 1984.69 236.21 2034.76 236.09 1982.98 479.33 1932.91 479.46"/></svg>