<?xml version="1.0" encoding="utf-8"?>
<!-- Generator: Adobe Illustrator 16.0.0, SVG Export Plug-In . SVG Version: 6.00 Build 0)  -->
<!DOCTYPE svg PUBLIC "-//W3C//DTD SVG 1.1//EN" "http://www.w3.org/Graphics/SVG/1.1/DTD/svg11.dtd">
<svg version="1.1" id="Ebene_1" xmlns="http://www.w3.org/2000/svg" xmlns:xlink="http://www.w3.org/1999/xlink" x="0px" y="0px"
	 width="908.227px" height="196.356px" viewBox="0 0 908.227 196.356" enable-background="new 0 0 908.227 196.356"
	 xml:space="preserve">
<g>
	<g>
		<path fill="#333333" d="M265.016,148.186V93.692c0-8.451-1.777-14.596-5.334-18.436c-3.555-3.838-9.07-5.758-16.541-5.758
			c-10.049,0-17.404,2.54-22.068,7.614c-4.664,5.076-6.995,13.309-6.995,24.696v46.378h-7.652V27.912h7.652v38.262l-0.387,10.744
			h0.542c3.142-5.05,7.11-8.708,11.903-10.976c4.792-2.268,10.743-3.402,17.854-3.402c19.066,0,28.6,10.23,28.6,30.687v54.958
			H265.016z"/>
		<path fill="#333333" d="M361.373,106.059c0,13.708-3.324,24.414-9.971,32.117c-6.647,7.704-15.82,11.556-27.518,11.556
			c-7.369,0-13.863-1.778-19.479-5.333c-5.617-3.556-9.92-8.658-12.908-15.305c-2.989-6.648-4.483-14.326-4.483-23.035
			c0-13.707,3.324-24.387,9.973-32.039c6.646-7.652,15.768-11.479,27.361-11.479c11.543,0,20.6,3.878,27.17,11.633
			C358.088,81.93,361.373,92.559,361.373,106.059z M295.053,106.059c0,11.543,2.538,20.549,7.613,27.015
			c5.076,6.468,12.253,9.701,21.527,9.701c9.276,0,16.451-3.233,21.527-9.701c5.074-6.466,7.614-15.472,7.614-27.015
			c0-11.594-2.565-20.585-7.691-26.976c-5.128-6.389-12.328-9.585-21.604-9.585c-9.275,0-16.426,3.183-21.449,9.546
			C297.565,85.409,295.053,94.414,295.053,106.059z"/>
		<path fill="#333333" d="M433.571,126.311c0,7.524-2.86,13.309-8.579,17.353c-5.721,4.046-13.837,6.068-24.35,6.068
			c-11.234,0-20.148-1.726-26.744-5.179v-8.271c8.451,4.226,17.365,6.338,26.744,6.338c8.297,0,14.597-1.378,18.898-4.135
			c4.303-2.756,6.455-6.428,6.455-11.015c0-4.225-1.713-7.78-5.14-10.667c-3.429-2.885-9.058-5.721-16.89-8.503
			c-8.4-3.04-14.3-5.654-17.701-7.846c-3.4-2.189-5.965-4.663-7.691-7.42c-1.727-2.756-2.589-6.119-2.589-10.087
			c0-6.286,2.641-11.259,7.923-14.917c5.281-3.659,12.663-5.489,22.146-5.489c9.069,0,17.675,1.701,25.817,5.102l-2.86,6.957
			c-8.245-3.401-15.897-5.102-22.957-5.102c-6.854,0-12.29,1.135-16.31,3.401c-4.02,2.269-6.029,5.412-6.029,9.43
			c0,4.38,1.559,7.884,4.676,10.513c3.118,2.627,9.211,5.565,18.281,8.812c7.575,2.731,13.088,5.192,16.542,7.382
			c3.452,2.19,6.041,4.676,7.768,7.459C432.707,119.277,433.571,122.549,433.571,126.311z"/>
		<path fill="#333333" d="M477.398,142.929c4.843,0,9.07-0.412,12.677-1.237v6.184c-3.71,1.236-7.987,1.855-12.832,1.855
			c-7.419,0-12.896-1.984-16.425-5.952c-3.53-3.968-5.295-10.204-5.295-18.706V70.812h-12.444v-4.483l12.444-3.478l3.865-19.016
			h3.942v20.329h24.657v6.648h-24.657v53.18c0,6.441,1.133,11.208,3.4,14.299C468.999,141.383,472.553,142.929,477.398,142.929z"/>
		<path fill="#333333" d="M507.158,40.821c0-4.947,1.624-7.421,4.87-7.421c1.596,0,2.846,0.645,3.748,1.933
			c0.901,1.288,1.353,3.118,1.353,5.488c0,2.319-0.451,4.148-1.353,5.488c-0.902,1.34-2.152,2.01-3.748,2.01
			C508.782,48.318,507.158,45.819,507.158,40.821z M515.893,148.186h-7.652V64.164h7.652V148.186z"/>
		<path fill="#333333" d="M602.619,148.186V93.692c0-8.451-1.778-14.596-5.332-18.436c-3.556-3.838-9.073-5.758-16.543-5.758
			c-10.05,0-17.406,2.54-22.068,7.614c-4.663,5.076-6.996,13.309-6.996,24.696v46.378h-7.651V64.164h6.494l1.466,11.518h0.464
			c5.462-8.76,15.179-13.141,29.143-13.141c19.065,0,28.601,10.23,28.601,30.687v54.958H602.619z"/>
		<path fill="#333333" d="M702.951,64.164v5.333l-17.395,1.083c4.64,5.771,6.958,12.11,6.958,19.015
			c0,8.091-2.694,14.648-8.078,19.672c-5.386,5.024-12.611,7.536-21.68,7.536c-3.814,0-6.494-0.154-8.04-0.463
			c-3.041,1.597-5.359,3.478-6.957,5.642c-1.598,2.165-2.397,4.458-2.397,6.879c0,2.681,1.019,4.638,3.053,5.875
			c2.036,1.236,5.45,1.854,10.245,1.854h14.685c9.121,0,16.102,1.844,20.948,5.527c4.844,3.685,7.264,9.133,7.264,16.348
			c0,8.862-3.592,15.703-10.779,20.522c-7.191,4.818-17.433,7.227-30.727,7.227c-10.564,0-18.745-2.036-24.541-6.106
			c-5.798-4.072-8.696-9.739-8.696-17.006c0-5.772,1.788-10.564,5.371-14.377c3.582-3.812,8.437-6.415,14.572-7.807
			c-2.528-1.082-4.55-2.615-6.069-4.599c-1.521-1.983-2.279-4.263-2.279-6.84c0-5.616,3.58-10.563,10.742-14.841
			c-4.896-2.01-8.707-5.166-11.439-9.469c-2.732-4.302-4.097-9.237-4.097-14.802c0-8.399,2.668-15.137,8.001-20.213
			c5.333-5.075,12.533-7.614,21.605-7.614c5.511,0,9.789,0.542,12.83,1.624H702.951z M634.929,162.409
			c0,11.542,8.579,17.314,25.739,17.314c22.055,0,33.083-7.034,33.083-21.102c0-5.051-1.726-8.709-5.179-10.976
			c-3.453-2.267-9.042-3.401-16.773-3.401h-13.758C642.634,144.243,634.929,150.298,634.929,162.409z M641.344,90.368
			c0,6.493,1.972,11.531,5.914,15.111c3.942,3.583,9.209,5.372,15.808,5.372c7.007,0,12.379-1.777,16.114-5.333
			c3.738-3.555,5.605-8.708,5.605-15.459c0-7.162-1.92-12.534-5.76-16.116c-3.838-3.581-9.209-5.373-16.113-5.373
			c-6.702,0-11.972,1.921-15.809,5.759C643.264,78.168,641.344,83.515,641.344,90.368z"/>
		<path fill="#333333" d="M718.643,142.157c0-5.05,2.061-7.575,6.185-7.575c4.223,0,6.337,2.525,6.337,7.575
			c0,5.051-2.114,7.575-6.337,7.575C720.703,149.732,718.643,147.208,718.643,142.157z"/>
		<path fill="#333333" d="M780.68,62.541c6.081,0,11.336,1.109,15.768,3.324c4.433,2.216,8.398,6.003,11.903,11.362h0.463
			c-0.309-6.493-0.463-12.857-0.463-19.092V27.912h7.576v120.273h-5.024l-1.934-12.831h-0.618
			c-6.39,9.585-15.563,14.377-27.516,14.377c-11.594,0-20.459-3.606-26.591-10.822c-6.133-7.214-9.197-17.726-9.197-31.537
			c0-14.532,3.038-25.636,9.121-33.315C760.248,66.38,769.086,62.541,780.68,62.541z M780.68,69.498
			c-9.173,0-16.066,3.222-20.677,9.662c-4.613,6.442-6.92,15.795-6.92,28.059c0,23.807,9.25,35.71,27.752,35.71
			c9.479,0,16.438-2.756,20.87-8.271c4.43-5.513,6.646-14.609,6.646-27.286v-1.314c0-12.986-2.175-22.325-6.532-28.02
			C797.465,72.346,790.42,69.498,780.68,69.498z"/>
		<path fill="#333333" d="M878.072,149.732c-12.212,0-21.732-3.761-28.559-11.286c-6.83-7.524-10.241-18.061-10.241-31.614
			c0-13.398,3.294-24.128,9.894-32.194c6.594-8.064,15.484-12.097,26.667-12.097c9.894,0,17.7,3.454,23.422,10.358
			c5.718,6.906,8.578,16.284,8.578,28.137v6.184h-60.524c0.105,11.543,2.797,20.355,8.077,26.435
			c5.284,6.081,12.845,9.121,22.687,9.121c4.794,0,9.008-0.334,12.638-1.005c3.634-0.668,8.235-2.112,13.8-4.328v6.957
			c-4.742,2.062-9.122,3.466-13.141,4.212C887.349,149.357,882.916,149.732,878.072,149.732z M875.833,69.343
			c-8.092,0-14.583,2.667-19.479,8c-4.896,5.334-7.756,13.025-8.581,23.073h51.945c0-9.739-2.114-17.353-6.339-22.841
			C889.154,72.087,883.304,69.343,875.833,69.343z"/>
	</g>
</g>
<g>
	<path fill="#FAAF3C" d="M91.087,182.459C51.596,187.504,6.49,156.52,0.653,110.838c-3.21-25.134,0.593-50.024,16.571-65.95
		C33.203,28.963,38.047,61.13,37.928,75.676c-0.118,14.543,3.405,47.068,6.116,57.91C51.324,162.708,68.98,182.529,91.087,182.459
		L91.087,182.459z"/>
	<path fill="#8CC864" d="M9.588,2.096c26.698-8.138,61.524,7.962,70.94,38.844c5.181,16.995,5.483,34.642-3.683,47.532
		c-9.168,12.889-16.305-8.771-17.938-18.836c-1.631-10.068-7.898-32.129-11.049-39.305C39.396,11.063,24.858-0.555,9.588,2.096
		L9.588,2.096z"/>
	<g>
		<path fill="#E6322D" d="M70.861,13.897c39.49-5.045,84.597,25.94,90.434,71.623c3.21,25.134-0.594,50.022-16.571,65.949
			c-15.979,15.926-20.823-16.242-20.704-30.789c0.119-14.543-3.404-47.068-6.115-57.909C110.623,33.65,92.967,13.827,70.861,13.897
			L70.861,13.897z"/>
		<path fill="#194B64" d="M152.359,194.26c-26.697,8.138-61.523-7.962-70.939-38.843c-5.181-16.996-5.484-34.642,3.683-47.532
			c9.167-12.891,16.305,8.771,17.937,18.834c1.631,10.069,7.898,32.13,11.049,39.307C122.551,185.295,137.09,196.913,152.359,194.26
			L152.359,194.26z"/>
	</g>
</g>
</svg>
