<svg width="20" height="18" viewBox="0 0 20 18" fill="none" xmlns="http://www.w3.org/2000/svg">
<path d="M17.9442 4.48592C17.9569 4.68279 17.9569 4.87969 17.9569 5.07656C17.9569 11.0812 13.8326 18 6.29444 18C3.97209 18 1.81473 17.2547 0 15.961C0.329962 16.0031 0.64719 16.0172 0.989848 16.0172C2.90607 16.0172 4.67006 15.3 6.0787 14.0766C4.27666 14.0344 2.7665 12.7266 2.24618 10.9266C2.50001 10.9687 2.7538 10.9969 3.02032 10.9969C3.38833 10.9969 3.75638 10.9406 4.099 10.8422C2.22083 10.4203 0.812152 8.59218 0.812152 6.38437V6.32814C1.35782 6.66564 1.99239 6.87657 2.66493 6.90467C1.56087 6.08902 0.837542 4.69685 0.837542 3.12184C0.837542 2.27811 1.04055 1.50467 1.3959 0.829666C3.41369 3.58591 6.4467 5.38588 9.8477 5.58279C9.78426 5.24529 9.74617 4.89376 9.74617 4.54219C9.74617 2.03904 11.5736 0 13.8452 0C15.0254 0 16.0914 0.548436 16.8401 1.43437C17.7665 1.23751 18.6548 0.857802 19.4416 0.337502C19.137 1.39221 18.4898 2.27815 17.6396 2.84061C18.4645 2.74222 19.264 2.48904 20 2.13752C19.4417 3.03748 18.7437 3.83901 17.9442 4.48592Z" fill="#ACACAC"/>
</svg>
